<svg width="1024" height="1024" viewBox="0 0 1024 1024" fill="none" xmlns="http://www.w3.org/2000/svg">
<g filter="url(#filter0_dd_2357_133)">
<path fill-rule="evenodd" clip-rule="evenodd" d="M411.452 369.771C409.734 364.959 409.734 360.15 414.022 352.581C418.138 345.364 419.683 341.416 423.63 333.504C435.459 310.131 469.079 330.412 456.558 351.725C451.581 360.15 446.093 368.047 443.35 371.146C438.891 376.646 435.636 379.394 430.49 379.571C359.829 533.21 457.243 627.39 536.478 620.86C617.43 614.156 672.996 526.163 607.481 382.832C602.162 383.519 598.395 381.107 592.903 376.128C589.991 373.376 583.475 366.33 577.297 358.599C562.202 339.008 592.903 314.6 607.655 336.259C612.624 343.65 614.687 347.255 619.826 353.789C624.971 360.837 625.657 365.642 624.459 370.628C707.984 547.305 638.009 641.651 556.024 653.684C551.052 695.622 535.958 745.287 493.595 761.959C451.578 778.632 406.642 753.195 374.913 726.896C308.2 671.215 247.654 594.738 220.727 511.211C158.987 319.243 300.481 157.008 475.423 279.544C485.537 286.761 495.146 294.492 503.89 302.917C495.146 312.366 486.908 322.505 479.536 332.99C471.478 325.087 462.732 317.695 453.469 311.169C304.429 206.85 209.068 349.837 257.266 499.355C281.966 575.835 338.392 646.297 399.443 697.169C418.481 712.978 453.122 736.525 479.536 726.208C504.236 716.417 513.672 679.979 517.27 653.515C419.687 640.454 322.438 533.21 411.452 369.771Z" fill="#1B53A6"/>
</g>
<path fill-rule="evenodd" clip-rule="evenodd" d="M612.458 254.281C728.394 224.717 821.185 312.027 817.75 430.263C814.838 536.307 736.798 636.84 669.053 713.327L664.936 717.962C666.307 720.88 667.169 723.978 667.339 727.418C668.367 742.366 657.048 755.256 641.957 756.287C627.04 757.318 614.168 745.974 613.14 730.853C612.112 715.905 623.431 703.014 638.522 701.984C641.614 701.807 644.869 702.153 647.785 703.014L653.959 695.97C714.841 627.051 780.36 525.998 782.932 430.267C785.675 337.808 713.3 268.376 621.884 291.749C537.85 313.231 479.191 410.502 484.167 495.064C487.598 551.258 552.428 555.728 547.625 486.812C545.399 454.844 537.168 423.049 523.099 394.18C529.788 381.29 538.016 369.259 547.452 358.259C569.745 396.241 582.956 439.895 586.041 484.237C587.582 506.403 584.157 529.61 571.293 548.17C560.486 563.636 544.363 573.778 525.667 576.009C506.121 578.24 486.4 571.023 472.158 557.789C455.176 541.98 447.116 519.977 445.747 497.295C439.743 394.693 510.065 280.406 612.458 254.281ZM636.472 671.389C644.53 670.876 652.249 672.077 659.281 674.651C654.998 679.634 650.877 684.62 646.591 689.262L644.021 692.181C641.965 692.011 639.904 691.837 637.847 692.011C617.437 693.385 601.828 711.088 603.206 731.536C604.577 751.988 622.244 767.63 642.65 766.256C663.06 764.882 678.663 747.178 677.291 726.73C677.122 724.492 676.779 722.432 676.262 720.37L676.605 720.026C681.578 714.353 686.554 708.68 691.53 702.837C695.128 709.541 697.191 717.271 697.877 725.346C699.934 757.141 675.75 784.643 644.021 786.878C612.292 788.939 584.853 764.705 582.627 732.91C580.562 701.116 604.74 673.624 636.472 671.389Z" fill="#06B790"/>
<defs>
<filter id="filter0_dd_2357_133" x="200" y="231" width="468.124" height="542.289" filterUnits="userSpaceOnUse" color-interpolation-filters="sRGB">
<feFlood flood-opacity="0" result="BackgroundImageFix"/>
<feColorMatrix in="SourceAlpha" type="matrix" values="0 0 0 0 0 0 0 0 0 0 0 0 0 0 0 0 0 0 127 0" result="hardAlpha"/>
<feOffset dy="2"/>
<feGaussianBlur stdDeviation="2"/>
<feColorMatrix type="matrix" values="0 0 0 0 0.105882 0 0 0 0 0.32549 0 0 0 0 0.65098 0 0 0 0.08 0"/>
<feBlend mode="normal" in2="BackgroundImageFix" result="effect1_dropShadow_2357_133"/>
<feColorMatrix in="SourceAlpha" type="matrix" values="0 0 0 0 0 0 0 0 0 0 0 0 0 0 0 0 0 0 127 0" result="hardAlpha"/>
<feOffset/>
<feGaussianBlur stdDeviation="3"/>
<feColorMatrix type="matrix" values="0 0 0 0 0.105882 0 0 0 0 0.32549 0 0 0 0 0.65098 0 0 0 0.02 0"/>
<feBlend mode="normal" in2="effect1_dropShadow_2357_133" result="effect2_dropShadow_2357_133"/>
<feBlend mode="normal" in="SourceGraphic" in2="effect2_dropShadow_2357_133" result="shape"/>
</filter>
</defs>
</svg>
